<?xml version="1.0" encoding="utf-8"?>
<!-- Generator: Adobe Illustrator 24.0.1, SVG Export Plug-In . SVG Version: 6.00 Build 0)  -->
<svg version="1.1" id="Слой_1" xmlns="http://www.w3.org/2000/svg" xmlns:xlink="http://www.w3.org/1999/xlink" x="0px" y="0px"
	 viewBox="0 0 40 40" style="enable-background:new 0 0 40 40;" xml:space="preserve">
<style type="text/css">
	.st0{fill:#24292E;}
</style>
<path class="st0" d="M11.7,28.3c-2.3,0-4.3-0.8-5.9-2.4c-1.6-1.6-2.4-3.6-2.4-5.9s0.8-4.3,2.4-5.9c1.6-1.6,3.6-2.4,5.9-2.4h5.5
	c0.4,0,0.8,0.1,1,0.4c0.3,0.3,0.4,0.6,0.4,1c0,0.4-0.1,0.8-0.4,1c-0.3,0.3-0.6,0.4-1,0.4h-5.5c-1.6,0-2.9,0.5-4,1.6
	c-1.1,1.1-1.6,2.4-1.6,4s0.5,2.9,1.6,4c1.1,1.1,2.4,1.6,4,1.6h5.5c0.4,0,0.8,0.1,1,0.4c0.3,0.3,0.4,0.6,0.4,1c0,0.4-0.1,0.7-0.4,1
	c-0.3,0.3-0.6,0.4-1,0.4H11.7z M14.8,21.4c-0.4,0-0.7-0.1-1-0.4s-0.4-0.6-0.4-1s0.1-0.7,0.4-1s0.6-0.4,1-0.4h10.3
	c0.4,0,0.7,0.1,1,0.4c0.3,0.3,0.4,0.6,0.4,1s-0.1,0.7-0.4,1c-0.3,0.3-0.6,0.4-1,0.4H14.8z M36.7,20h-2.8c0-1.6-0.5-2.9-1.6-4
	c-1.1-1.1-2.4-1.6-4-1.6h-5.5c-0.4,0-0.8-0.1-1-0.4c-0.3-0.3-0.4-0.6-0.4-1c0-0.4,0.1-0.7,0.4-1c0.3-0.3,0.6-0.4,1-0.4h5.5
	c2.3,0,4.3,0.8,5.9,2.4C35.9,15.7,36.7,17.7,36.7,20z M30.2,33.3c-0.4,0-0.7-0.1-1-0.4c-0.3-0.3-0.4-0.6-0.4-1v-3.6h-3.6
	c-0.4,0-0.7-0.1-1-0.4c-0.3-0.3-0.4-0.6-0.4-1c0-0.4,0.1-0.8,0.4-1c0.3-0.3,0.6-0.4,1-0.4h3.6V22c0-0.4,0.1-0.7,0.4-1
	c0.3-0.3,0.6-0.4,1-0.4s0.7,0.1,1,0.4c0.3,0.3,0.4,0.6,0.4,1v3.6h3.6c0.4,0,0.7,0.1,1,0.4c0.3,0.3,0.4,0.6,0.4,1
	c0,0.4-0.1,0.7-0.4,1c-0.3,0.3-0.6,0.4-1,0.4h-3.6V32c0,0.4-0.1,0.7-0.4,1C31,33.2,30.6,33.3,30.2,33.3z"/>
</svg>
