<?xml version="1.0" encoding="utf-8"?>
<!-- Generator: Adobe Illustrator 24.0.1, SVG Export Plug-In . SVG Version: 6.00 Build 0)  -->
<svg version="1.1" id="Слой_1" xmlns="http://www.w3.org/2000/svg" xmlns:xlink="http://www.w3.org/1999/xlink" x="0px" y="0px"
	 viewBox="0 0 40 40" style="enable-background:new 0 0 40 40;" xml:space="preserve">
<style type="text/css">
	.st0{fill:#24292E;}
</style>
<path class="st0" d="M25.8,35.4L11.4,21c-0.1-0.1-0.2-0.3-0.3-0.4C11,20.4,11,20.2,11,20s0-0.4,0.1-0.5c0.1-0.2,0.2-0.3,0.3-0.4
	L25.8,4.6c0.3-0.3,0.8-0.5,1.2-0.5s0.9,0.2,1.3,0.5s0.5,0.8,0.5,1.3s-0.2,0.9-0.5,1.3L15.5,20l12.8,12.8c0.4,0.4,0.5,0.8,0.5,1.3
	c0,0.5-0.2,0.9-0.6,1.3c-0.4,0.4-0.8,0.5-1.3,0.5C26.6,35.9,26.2,35.7,25.8,35.4z"/>
</svg>
