<?xml version="1.0" encoding="utf-8"?>
<!-- Generator: Adobe Illustrator 24.0.1, SVG Export Plug-In . SVG Version: 6.00 Build 0)  -->
<svg version="1.1" id="Слой_1" xmlns="http://www.w3.org/2000/svg" xmlns:xlink="http://www.w3.org/1999/xlink" x="0px" y="0px"
	 viewBox="0 0 48 48" style="enable-background:new 0 0 48 48;" xml:space="preserve">
<style type="text/css">
	.st0{fill:#FFFFFF;}
</style>
<path class="st0" d="M13.1,42c-0.8,0-1.5-0.3-2.1-0.9c-0.6-0.6-0.9-1.3-0.9-2.1V10.5H9.5c-0.4,0-0.8-0.1-1.1-0.4C8.1,9.8,8,9.4,8,9
	s0.1-0.8,0.4-1.1c0.3-0.3,0.6-0.4,1.1-0.4h7.9c0-0.4,0.1-0.8,0.4-1.1C18.1,6.1,18.5,6,18.9,6h10.2c0.4,0,0.8,0.1,1.1,0.4
	c0.3,0.3,0.4,0.6,0.4,1.1h7.9c0.4,0,0.8,0.1,1.1,0.4C39.9,8.2,40,8.6,40,9s-0.1,0.8-0.4,1.1c-0.3,0.3-0.6,0.4-1.1,0.4H38V39
	c0,0.8-0.3,1.5-0.9,2.1C36.5,41.7,35.8,42,35,42H13.1z M13.1,10.5V39l0,0l0,0H35l0,0l0,0V10.5H13.1z M18.4,33.2
	c0,0.4,0.1,0.8,0.4,1.1c0.3,0.3,0.6,0.4,1.1,0.4c0.4,0,0.8-0.1,1.1-0.4c0.3-0.3,0.4-0.6,0.4-1.1v-17c0-0.4-0.1-0.8-0.4-1.1
	c-0.3-0.3-0.6-0.4-1.1-0.4c-0.4,0-0.8,0.1-1.1,0.4c-0.3,0.3-0.4,0.6-0.4,1.1V33.2z M26.6,33.2c0,0.4,0.1,0.8,0.4,1.1
	c0.3,0.3,0.6,0.4,1.1,0.4c0.4,0,0.8-0.1,1.1-0.4c0.3-0.3,0.4-0.6,0.4-1.1v-17c0-0.4-0.1-0.8-0.4-1.1c-0.3-0.3-0.6-0.4-1.1-0.4
	c-0.4,0-0.8,0.1-1.1,0.4c-0.3,0.3-0.4,0.6-0.4,1.1V33.2z M13.1,10.5V39l0,0l0,0l0,0l0,0V10.5z"/>
</svg>
