<?xml version="1.0" encoding="utf-8"?>
<!-- Generator: Adobe Illustrator 24.0.1, SVG Export Plug-In . SVG Version: 6.00 Build 0)  -->
<svg version="1.1" id="Слой_1" xmlns="http://www.w3.org/2000/svg" xmlns:xlink="http://www.w3.org/1999/xlink" x="0px" y="0px"
	 viewBox="0 0 40 40" style="enable-background:new 0 0 40 40;" xml:space="preserve">
<style type="text/css">
	.st0{fill:#24292E;}
</style>
<path class="st0" d="M7.8,31.7c-0.8,0-1.4-0.3-2-0.8c-0.5-0.5-0.8-1.2-0.8-2V11.1c0-0.8,0.3-1.4,0.8-2c0.5-0.5,1.2-0.8,2-0.8H25
	c0.6,0,1.1,0.1,1.6,0.4c0.5,0.3,0.9,0.7,1.2,1.2l6,8.4c0.3,0.5,0.5,1,0.5,1.6s-0.2,1.1-0.5,1.6l-6,8.4c-0.3,0.5-0.8,0.9-1.2,1.2
	c-0.5,0.3-1,0.4-1.6,0.4H7.8z M31.5,20l-6.2-8.9l0,0l0,0H7.8l0,0l0,0v17.8l0,0l0,0h17.5l0,0l0,0L31.5,20z M7.8,20v8.9l0,0l0,0l0,0
	l0,0V11.1l0,0l0,0l0,0l0,0V20z"/>
</svg>
