<?xml version="1.0" encoding="utf-8"?>
<!-- Generator: Adobe Illustrator 24.0.1, SVG Export Plug-In . SVG Version: 6.00 Build 0)  -->
<svg version="1.1" id="Слой_1" xmlns="http://www.w3.org/2000/svg" xmlns:xlink="http://www.w3.org/1999/xlink" x="0px" y="0px"
	 viewBox="0 0 40 40" style="enable-background:new 0 0 40 40;" xml:space="preserve">
<style type="text/css">
	.st0{fill:#B7C0CB;}
</style>
<path class="st0" d="M30.1,26.9l-2-2l3.5-4.9l-6.3-8.9l0,0l0,0h-11l-2.8-2.8H25c0.7,0,1.2,0.1,1.7,0.4c0.5,0.3,0.9,0.7,1.2,1.2
	l6,8.4c0.3,0.5,0.5,1,0.5,1.6s-0.2,1.1-0.5,1.6L30.1,26.9z M7.8,31.7c-0.8,0-1.4-0.3-2-0.8c-0.6-0.6-0.8-1.2-0.8-2V11.7
	c0-0.4,0-0.7,0.1-0.9s0.2-0.5,0.3-0.7L3.3,8C3,7.7,2.9,7.4,2.9,7S3,6.3,3.3,6c0.3-0.3,0.6-0.4,1-0.4c0.4,0,0.7,0.1,1,0.4L34,34.7
	c0.2,0.2,0.4,0.6,0.4,1c0,0.4-0.1,0.7-0.4,1c-0.2,0.3-0.6,0.4-1,0.4s-0.7-0.1-1-0.4l-5.4-5.4c-0.2,0.1-0.4,0.2-0.7,0.3
	c-0.3,0.1-0.6,0.1-1,0.1H7.8z M16,20.8L16,20.8L16,20.8z M21.3,18.1L21.3,18.1L21.3,18.1z M24.2,28.9L7.8,12.5v16.4l0,0l0,0H24.2z"
	/>
</svg>
