<?xml version="1.0" encoding="utf-8"?>
<!-- Generator: Adobe Illustrator 24.0.1, SVG Export Plug-In . SVG Version: 6.00 Build 0)  -->
<svg version="1.1" id="Слой_1" xmlns="http://www.w3.org/2000/svg" xmlns:xlink="http://www.w3.org/1999/xlink" x="0px" y="0px"
	 viewBox="0 0 48 48" style="enable-background:new 0 0 48 48;" xml:space="preserve">
<style type="text/css">
	.st0{fill:#24292E;}
</style>
<path class="st0" d="M14,34c-2.8,0-5.2-1-7.1-2.9S4,26.8,4,24s1-5.2,2.9-7.1S11.2,14,14,14h7c0.4,0,0.8,0.1,1.1,0.4
	c0.3,0.3,0.4,0.6,0.4,1.1s-0.1,0.8-0.4,1.1C21.8,16.9,21.4,17,21,17h-7c-2,0-3.7,0.7-5,2s-2,3-2,5s0.7,3.7,2,5s3,2,5,2h7
	c0.4,0,0.8,0.1,1.1,0.4c0.3,0.3,0.4,0.6,0.4,1.1s-0.1,0.8-0.4,1.1C21.8,33.9,21.4,34,21,34H14z M17.8,25.5c-0.4,0-0.8-0.1-1.1-0.4
	c-0.3-0.3-0.4-0.6-0.4-1.1s0.1-0.8,0.4-1.1c0.3-0.3,0.6-0.4,1.1-0.4h12.5c0.4,0,0.8,0.1,1.1,0.4c0.3,0.3,0.4,0.6,0.4,1.1
	s-0.1,0.8-0.4,1.1c-0.3,0.3-0.6,0.4-1.1,0.4H17.8z M27,34c-0.4,0-0.8-0.1-1.1-0.4c-0.3-0.3-0.4-0.6-0.4-1.1s0.1-0.8,0.4-1.1
	c0.3-0.3,0.6-0.4,1.1-0.4h7c2,0,3.7-0.7,5-2s2-3,2-5s-0.7-3.7-2-5s-3-2-5-2h-7c-0.4,0-0.8-0.1-1.1-0.4c-0.3-0.3-0.4-0.6-0.4-1.1
	s0.1-0.8,0.4-1.1c0.3-0.3,0.6-0.4,1.1-0.4h7c2.8,0,5.2,1,7.1,2.9S44,21.2,44,24s-1,5.2-2.9,7.1S36.8,34,34,34H27z"/>
</svg>
