<?xml version="1.0" encoding="utf-8"?>
<!-- Generator: Adobe Illustrator 24.0.1, SVG Export Plug-In . SVG Version: 6.00 Build 0)  -->
<svg version="1.1" id="Слой_1" xmlns="http://www.w3.org/2000/svg" xmlns:xlink="http://www.w3.org/1999/xlink" x="0px" y="0px"
	 viewBox="0 0 48 48" style="enable-background:new 0 0 48 48;" xml:space="preserve">
<style type="text/css">
	.st0{fill:#BFC8D5;}
</style>
<path class="st0" d="M29.5,25.5l-2.8-2.9h2.8c0.4,0,0.8,0.1,1.1,0.4s0.4,0.6,0.4,1s-0.1,0.7-0.4,1C30.3,25.4,29.9,25.5,29.5,25.5z
	 M37.5,33.5L35,31c1.7-0.3,3.2-1.1,4.3-2.4s1.7-2.8,1.7-4.5c0-2-0.7-3.7-2-5s-3-2-5-2h-6.2c-0.4,0-0.8-0.1-1.1-0.4
	c-0.3-0.3-0.4-0.6-0.4-1.1c0-0.4,0.1-0.8,0.4-1.1s0.6-0.4,1.1-0.4H34c2.8,0,5.2,1,7.1,2.9s2.9,4.3,2.9,7.1c0,2.2-0.6,4.1-1.9,5.7
	C40.9,31.5,39.3,32.7,37.5,33.5z M39.7,44.1L4.2,8.7C3.9,8.4,3.8,8,3.8,7.6s0.1-0.8,0.4-1.1C4.5,6.2,4.9,6,5.3,6s0.8,0.2,1.1,0.5
	L41.8,42c0.3,0.3,0.5,0.6,0.5,1s-0.1,0.8-0.5,1c-0.3,0.3-0.7,0.5-1.1,0.5S40,44.4,39.7,44.1z M21,34h-7c-2.8,0-5.2-1-7.1-2.9
	S4,26.8,4,24c0-2.5,0.7-4.6,2.2-6.4s3.4-2.9,5.7-3.4l2.8,2.8H14c-2,0-3.7,0.7-5,2s-2,3-2,5s0.7,3.7,2,5s3,2,5,2h7
	c0.4,0,0.8,0.1,1.1,0.4c0.3,0.3,0.4,0.6,0.4,1.1s-0.1,0.8-0.4,1.1C21.8,33.9,21.4,34,21,34z M23.2,25.5h-4.8c-0.4,0-0.8-0.1-1.1-0.4
	C17.1,24.8,17,24.4,17,24s0.1-0.8,0.4-1.1c0.3-0.3,0.6-0.4,1.1-0.4h1.8L23.2,25.5z"/>
</svg>
