<?xml version="1.0" encoding="utf-8"?>
<!-- Generator: Adobe Illustrator 24.0.1, SVG Export Plug-In . SVG Version: 6.00 Build 0)  -->
<svg version="1.1" id="Слой_1" xmlns="http://www.w3.org/2000/svg" xmlns:xlink="http://www.w3.org/1999/xlink" x="0px" y="0px"
	 viewBox="0 0 48 48" style="enable-background:new 0 0 48 48;" xml:space="preserve">
<style type="text/css">
	.st0{fill:#24292E;}
</style>
<path class="st0" d="M24,2c2.6,0,4.9,0.9,6.7,2.8s2.8,4.1,2.8,6.7v4.8H37c0.8,0,1.5,0.3,2.1,0.9s0.9,1.3,0.9,2.1V41
	c0,0.8-0.3,1.5-0.9,2.1S37.8,44,37,44H11c-0.8,0-1.5-0.3-2.1-0.9S8,41.8,8,41V19.3c0-0.8,0.3-1.5,0.9-2.1s1.3-0.9,2.1-0.9h3.5v-4.8
	c0-2.6,0.9-4.9,2.8-6.7S21.4,2,24,2z M24,5c-1.8,0-3.3,0.6-4.6,1.9s-1.9,2.8-1.9,4.6v4.8h13v-4.8c0-1.8-0.6-3.3-1.9-4.6S25.8,5,24,5
	z M11,41h26l0,0l0,0V19.3l0,0l0,0H11l0,0l0,0V41L11,41L11,41z M24,26.3c-1.1,0-2,0.4-2.7,1.2c-0.8,0.8-1.1,1.7-1.1,2.7
	c0,1,0.4,1.9,1.1,2.7S22.9,34,24,34s2-0.4,2.7-1.1s1.1-1.6,1.1-2.7c0-1-0.4-1.9-1.1-2.7C26,26.7,25.1,26.3,24,26.3z M11,19.3
	L11,19.3L11,19.3V41l0,0l0,0l0,0l0,0V19.3L11,19.3L11,19.3z"/>
</svg>
