<?xml version="1.0" encoding="utf-8"?>
<!-- Generator: Adobe Illustrator 24.0.1, SVG Export Plug-In . SVG Version: 6.00 Build 0)  -->
<svg version="1.1" id="Слой_1" xmlns="http://www.w3.org/2000/svg" xmlns:xlink="http://www.w3.org/1999/xlink" x="0px" y="0px"
	 viewBox="0 0 48 48" style="enable-background:new 0 0 48 48;" xml:space="preserve">
<style type="text/css">
	.st0{fill:#24292E;}
</style>
<path class="st0" d="M24,36.3c0.4,0,0.8-0.1,1.1-0.4c0.3-0.3,0.4-0.6,0.4-1.1v-4.9h5c0.4,0,0.8-0.1,1.1-0.4c0.3-0.3,0.4-0.6,0.4-1.1
	c0-0.4-0.1-0.8-0.4-1.1c-0.3-0.3-0.6-0.4-1.1-0.4h-5v-5c0-0.4-0.1-0.8-0.4-1.1c-0.3-0.3-0.6-0.4-1.1-0.4s-0.8,0.1-1.1,0.4
	c-0.3,0.3-0.4,0.6-0.4,1.1v5h-5c-0.4,0-0.8,0.1-1.1,0.4c-0.3,0.3-0.4,0.6-0.4,1.1c0,0.4,0.1,0.8,0.4,1.1c0.3,0.3,0.6,0.4,1.1,0.4h5
	v4.9c0,0.4,0.1,0.8,0.4,1.1C23.2,36.2,23.6,36.3,24,36.3z M11,44c-0.8,0-1.5-0.3-2.1-0.9C8.3,42.5,8,41.8,8,41V7
	c0-0.8,0.3-1.5,0.9-2.1C9.5,4.3,10.2,4,11,4h16.8c0.4,0,0.8,0.1,1.2,0.2c0.4,0.2,0.7,0.4,1,0.7l9.1,9.1c0.3,0.3,0.5,0.6,0.7,1
	c0.1,0.4,0.2,0.8,0.2,1.2V41c0,0.8-0.3,1.5-0.9,2.1C38.5,43.7,37.8,44,37,44H11z M27.5,7H11l0,0l0,0v34l0,0l0,0h26l0,0l0,0V16.3h-8
	c-0.4,0-0.8-0.1-1.1-0.4c-0.3-0.3-0.4-0.6-0.4-1.1V7z M11,7v7.8c0,0.4,0,0.8,0,1.1s0,0.4,0,0.4V7v7.8c0,0.4,0,0.8,0,1.1s0,0.4,0,0.4
	V41l0,0l0,0l0,0l0,0V7L11,7L11,7z"/>
</svg>
