<?xml version="1.0" encoding="utf-8"?>
<!-- Generator: Adobe Illustrator 24.0.1, SVG Export Plug-In . SVG Version: 6.00 Build 0)  -->
<svg version="1.1" id="Слой_1" xmlns="http://www.w3.org/2000/svg" xmlns:xlink="http://www.w3.org/1999/xlink" x="0px" y="0px"
	 viewBox="0 0 35 35" style="enable-background:new 0 0 35 35;" xml:space="preserve">
<style type="text/css">
	.st0{fill:#FFFFFF;}
</style>
<path class="st0" d="M7.8,34c-0.8,0-1.4-0.3-2-0.8S5,31.9,5,31.2V4.5H4.4c-0.4,0-0.8-0.1-1-0.4C3.1,3.8,3,3.4,3,3.1s0.1-0.8,0.4-1
	c0.3-0.3,0.6-0.4,1-0.4h7.4c0-0.4,0.1-0.8,0.4-1c0.3-0.3,0.7-0.4,1-0.4h9.6c0.4,0,0.8,0.1,1,0.4s0.4,0.6,0.4,1h7.4
	c0.4,0,0.8,0.1,1,0.4c0.3,0.3,0.4,0.7,0.4,1s-0.1,0.8-0.4,1s-0.6,0.4-1,0.4h-0.5v26.7c0,0.8-0.3,1.4-0.8,2c-0.6,0.6-1.2,0.8-2,0.8
	H7.8z M7.8,4.5v26.7l0,0l0,0h20.5l0,0l0,0V4.5H7.8z M12.8,25.8c0,0.4,0.1,0.8,0.4,1c0.3,0.3,0.6,0.4,1,0.4c0.4,0,0.7-0.1,1-0.4
	c0.3-0.3,0.4-0.6,0.4-1V9.8c0-0.4-0.1-0.8-0.4-1c-0.3-0.3-0.6-0.4-1-0.4c-0.4,0-0.8,0.1-1,0.4c-0.3,0.3-0.4,0.6-0.4,1V25.8z
	 M20.4,25.8c0,0.4,0.1,0.8,0.4,1c0.3,0.3,0.6,0.4,1,0.4c0.4,0,0.8-0.1,1-0.4c0.3-0.3,0.4-0.6,0.4-1V9.8c0-0.4-0.1-0.8-0.4-1
	c-0.3-0.3-0.6-0.4-1-0.4c-0.4,0-0.7,0.1-1,0.4c-0.3,0.3-0.4,0.6-0.4,1V25.8z M7.8,4.5v26.7l0,0l0,0l0,0l0,0V4.5z"/>
</svg>
