<?xml version="1.0" encoding="utf-8"?>
<!-- Generator: Adobe Illustrator 24.0.1, SVG Export Plug-In . SVG Version: 6.00 Build 0)  -->
<svg version="1.1" id="Слой_1" xmlns="http://www.w3.org/2000/svg" xmlns:xlink="http://www.w3.org/1999/xlink" x="0px" y="0px"
	 viewBox="0 0 40 40" style="enable-background:new 0 0 40 40;" xml:space="preserve">
<style type="text/css">
	.st0{fill:#24292E;}
</style>
<path class="st0" d="M20,26.4c2,0,3.7-0.7,5.1-2.1c1.4-1.4,2.1-3.1,2.1-5.1s-0.7-3.7-2.1-5.1C23.7,12.7,22,12,20,12
	s-3.7,0.7-5.1,2.1c-1.4,1.4-2.1,3.1-2.1,5.1s0.7,3.7,2.1,5.1C16.3,25.7,18,26.4,20,26.4z M20,23.8c-1.3,0-2.4-0.5-3.3-1.4
	c-0.9-0.9-1.4-2-1.4-3.3c0-1.3,0.5-2.4,1.4-3.3c0.9-0.9,2-1.4,3.3-1.4s2.4,0.5,3.3,1.4c0.9,0.9,1.4,2,1.4,3.3c0,1.3-0.5,2.4-1.4,3.3
	C22.4,23.3,21.3,23.8,20,23.8z M20,31.7c-3.8,0-7.3-1-10.5-3.1c-3.2-2.1-5.6-4.8-7.3-8.3C2.1,20.2,2.1,20,2,19.8
	C2,19.6,2,19.4,2,19.2c0-0.2,0-0.4,0.1-0.6c0-0.2,0.1-0.4,0.2-0.5c1.7-3.4,4.1-6.2,7.3-8.3S16.2,6.7,20,6.7s7.3,1,10.5,3.1
	s5.6,4.8,7.3,8.3c0.1,0.1,0.1,0.3,0.2,0.5c0,0.2,0.1,0.4,0.1,0.6c0,0.2,0,0.4-0.1,0.6c0,0.2-0.1,0.4-0.2,0.5
	c-1.7,3.4-4.1,6.2-7.3,8.3C27.3,30.6,23.8,31.7,20,31.7z M20,19.2L20,19.2L20,19.2L20,19.2L20,19.2L20,19.2L20,19.2L20,19.2L20,19.2
	z M20,28.9c3.3,0,6.3-0.9,9.1-2.6c2.8-1.8,4.9-4.1,6.3-7.1c-1.4-2.9-3.5-5.3-6.3-7.1S23.3,9.5,20,9.5c-3.3,0-6.3,0.9-9.1,2.6
	c-2.8,1.8-4.9,4.1-6.3,7.1c1.4,2.9,3.5,5.3,6.3,7.1C13.7,28,16.7,28.9,20,28.9z"/>
</svg>
